<?xml version="1.0" encoding="UTF-8"?>
<svg xmlns="http://www.w3.org/2000/svg" width="92.11" height="108.55" xmlns:xlink="http://www.w3.org/1999/xlink" viewBox="0 0 92.11 108.55">
  <defs>
    <style>
      .cls-1 {
        fill: url(#radial-gradient-3);
        opacity: .4;
      }

      .cls-1, .cls-2, .cls-3 {
        mix-blend-mode: overlay;
      }

      .cls-4 {
        fill: url(#radial-gradient-5);
      }

      .cls-5 {
        fill: url(#radial-gradient-4);
      }

      .cls-6 {
        fill: url(#radial-gradient-6);
      }

      .cls-2 {
        fill: url(#radial-gradient-2);
      }

      .cls-7 {
        fill: url(#radial-gradient);
      }

      .cls-3 {
        fill: url(#Degradado_sin_nombre_34);
        opacity: .2;
      }

      .cls-8 {
        fill: none;
        isolation: isolate;
      }
    </style>
    <radialGradient id="radial-gradient" cx="57.67" cy="13.78" fx="57.67" fy="13.78" r="70.26" gradientTransform="translate(115.34 23.84) rotate(-180) scale(1 .73)" gradientUnits="userSpaceOnUse">
      <stop offset="0" stop-color="#fff"/>
      <stop offset=".2" stop-color="#d5f3ff"/>
      <stop offset="1" stop-color="#85bcf1"/>
    </radialGradient>
    <radialGradient id="radial-gradient-2" cx="1706.5" cy="-1625.15" fx="1706.5" fy="-1625.15" r="8.48" gradientTransform="translate(-1145.21 -4083.92) rotate(126.03) scale(1.43 2.08) skewX(-4.38)" gradientUnits="userSpaceOnUse">
      <stop offset="0" stop-color="#fff"/>
      <stop offset=".1" stop-color="#fff" stop-opacity=".85"/>
      <stop offset=".29" stop-color="#fff" stop-opacity=".59"/>
      <stop offset=".47" stop-color="#fff" stop-opacity=".38"/>
      <stop offset=".63" stop-color="#fff" stop-opacity=".22"/>
      <stop offset=".78" stop-color="#fff" stop-opacity=".1"/>
      <stop offset=".91" stop-color="#fff" stop-opacity=".03"/>
      <stop offset="1" stop-color="#fff" stop-opacity="0"/>
    </radialGradient>
    <radialGradient id="radial-gradient-3" cx="1706.24" cy="-1640.81" fx="1706.24" fy="-1640.81" r="6.66" xlink:href="#radial-gradient-2"/>
    <radialGradient id="Degradado_sin_nombre_34" data-name="Degradado sin nombre 34" cx="10.93" cy="51.53" fx="10.93" fy="51.53" r="4.87" gradientTransform="translate(-63.98 -78.88) rotate(-25.71) scale(1 2.91)" gradientUnits="userSpaceOnUse">
      <stop offset="0" stop-color="#fff"/>
      <stop offset=".1" stop-color="#fff" stop-opacity=".85"/>
      <stop offset=".29" stop-color="#fff" stop-opacity=".59"/>
      <stop offset=".47" stop-color="#fff" stop-opacity=".38"/>
      <stop offset=".63" stop-color="#fff" stop-opacity=".22"/>
      <stop offset=".78" stop-color="#fff" stop-opacity=".1"/>
      <stop offset=".91" stop-color="#fff" stop-opacity=".03"/>
      <stop offset="1" stop-color="#fff" stop-opacity="0"/>
    </radialGradient>
    <radialGradient id="radial-gradient-4" cx="27.27" cy="77.66" fx="27.27" fy="77.66" r="18.39" gradientUnits="userSpaceOnUse">
      <stop offset="0" stop-color="#28cbe9"/>
      <stop offset="1" stop-color="#0a4fbb"/>
    </radialGradient>
    <radialGradient id="radial-gradient-5" cx="73.19" cy="75.94" fx="73.19" fy="75.94" r="18.39" xlink:href="#radial-gradient-4"/>
    <radialGradient id="radial-gradient-6" cx="52.09" cy="93.47" fx="52.09" fy="93.47" r="18.39" xlink:href="#radial-gradient-4"/>
  </defs>
  <g class="cls-8">
    <g id="Calque_2" data-name="Calque 2">
      <g id="OBJECTS">
        <g>
          <path class="cls-7" d="m73,25.15c-.96-14.05-12.65-25.15-26.94-25.15s-25.98,11.1-26.94,25.15C8.47,25.67,0,34.47,0,45.24s9.01,20.12,20.12,20.12h51.86c11.11,0,20.12-9.01,20.12-20.12s-8.47-19.57-19.11-20.1Z"/>
          <path class="cls-2" d="m46.06,27.65c-7.58-6.15-10.53-15.5-6.61-20.9,3.93-5.4,13.26-4.79,20.84,1.35,7.57,6.15,10.53,15.51,6.6,20.9-3.93,5.4-13.26,4.79-20.83-1.35Z"/>
          <path class="cls-1" d="m73.14,45.82c-5.95-4.83-8.28-12.19-5.19-16.43,3.09-4.24,10.42-3.77,16.37,1.06,5.95,4.83,8.27,12.19,5.19,16.43-3.09,4.25-10.42,3.77-16.37-1.06Z"/>
          <path class="cls-3" d="m14.39,46.49c-4.39-6.85-9.5-10.15-11.41-7.37-1.9,2.78.11,10.59,4.5,17.45,4.4,6.85,9.5,10.15,11.41,7.37,1.91-2.79-.11-10.59-4.5-17.45Z"/>
        </g>
        <path class="cls-5" d="m30.05,85.97l-1.97-1.14.61-.35c.48-.28.65-.9.37-1.38-.28-.48-.9-.65-1.38-.37l-1.62.94-1.5-.86c.06-.27.1-.55.1-.84s-.04-.57-.1-.84l1.5-.86,1.62.94c.16.09.33.14.5.14.35,0,.69-.18.88-.51.28-.48.11-1.1-.37-1.38l-.61-.35,1.97-1.14c.48-.28.65-.9.37-1.38-.28-.48-.9-.65-1.38-.37l-1.97,1.14v-.7c0-.56-.45-1.01-1.01-1.01h0c-.56,0-1.01.45-1.01,1.01v1.87s-1.5.87-1.5.87c-.4-.38-.9-.68-1.45-.84v-1.73l1.62-.94c.48-.28.65-.9.37-1.38-.28-.48-.9-.65-1.38-.37l-.61.35v-2.28c0-.56-.45-1.01-1.01-1.01s-1.01.45-1.01,1.01v2.28l-.61-.35c-.48-.28-1.1-.11-1.38.37-.28.48-.11,1.1.37,1.38l1.62.94v1.73c-.55.16-1.04.45-1.45.84l-1.5-.87v-1.87c0-.56-.45-1.01-1.01-1.01s-1.01.45-1.01,1.01v.7l-1.97-1.14c-.48-.28-1.1-.11-1.38.37-.28.48-.11,1.1.37,1.38l1.97,1.14-.61.35c-.48.28-.65.9-.37,1.38.19.32.53.51.88.51.17,0,.35-.04.5-.14l1.62-.94,1.5.86c-.07.27-.1.55-.1.84s.04.57.1.84l-1.5.86-1.62-.94c-.48-.28-1.1-.11-1.38.37-.28.48-.11,1.1.37,1.38l.61.35-1.97,1.14c-.48.28-.65.9-.37,1.38.19.32.53.51.88.51.17,0,.35-.04.51-.14l1.97-1.14v.7c0,.56.45,1.01,1.01,1.01s1.01-.45,1.01-1.01v-1.87s1.5-.87,1.5-.87c.4.38.9.68,1.45.84v1.73l-1.62.94c-.48.28-.65.9-.37,1.38.28.48.9.65,1.38.37l.61-.35v2.28c0,.56.45,1.01,1.01,1.01s1.01-.45,1.01-1.01v-2.28l.61.35c.16.09.33.14.51.14.35,0,.69-.18.88-.51.28-.48.11-1.1-.37-1.38l-1.62-.94v-1.73c.55-.16,1.04-.45,1.45-.84l1.5.86v1.87c0,.56.45,1.01,1.01,1.01s1.01-.45,1.01-1.01v-.7l1.97,1.14c.16.09.33.14.5.14.35,0,.69-.18.88-.51.28-.48.11-1.1-.37-1.38Zm-8.96-2.46c-.85,0-1.55-.7-1.55-1.55s.69-1.55,1.55-1.55,1.55.7,1.55,1.55-.7,1.55-1.55,1.55Z"/>
        <path class="cls-4" d="m75.97,84.25l-1.97-1.14.61-.35c.48-.28.65-.9.37-1.38-.28-.48-.9-.65-1.38-.37l-1.62.94-1.5-.86c.06-.27.1-.55.1-.84s-.04-.57-.1-.84l1.5-.86,1.62.94c.16.09.33.14.5.14.35,0,.69-.18.88-.51.28-.48.11-1.1-.37-1.38l-.61-.35,1.97-1.14c.48-.28.65-.9.37-1.38-.28-.48-.9-.65-1.38-.37l-1.97,1.14v-.7c0-.56-.45-1.01-1.01-1.01h0c-.56,0-1.01.45-1.01,1.01v1.87s-1.5.87-1.5.87c-.4-.38-.9-.68-1.45-.84v-1.73l1.62-.94c.48-.28.65-.9.37-1.38-.28-.48-.9-.65-1.38-.37l-.61.35v-2.28c0-.56-.45-1.01-1.01-1.01s-1.01.45-1.01,1.01v2.28l-.61-.35c-.48-.28-1.1-.11-1.38.37-.28.48-.11,1.1.37,1.38l1.62.94v1.73c-.55.16-1.04.45-1.45.84l-1.5-.87v-1.87c0-.56-.45-1.01-1.01-1.01s-1.01.45-1.01,1.01v.7l-1.97-1.14c-.48-.28-1.1-.11-1.38.37-.28.48-.11,1.1.37,1.38l1.97,1.14-.61.35c-.48.28-.65.9-.37,1.38.19.32.53.51.88.51.17,0,.35-.04.5-.14l1.62-.94,1.5.86c-.07.27-.1.55-.1.84s.04.57.1.84l-1.5.86-1.62-.94c-.48-.28-1.1-.11-1.38.37-.28.48-.11,1.1.37,1.38l.61.35-1.97,1.14c-.48.28-.65.9-.37,1.38.19.32.53.51.88.51.17,0,.35-.04.51-.14l1.97-1.14v.7c0,.56.45,1.01,1.01,1.01s1.01-.45,1.01-1.01v-1.87s1.5-.87,1.5-.87c.4.38.9.68,1.45.84v1.73l-1.62.94c-.48.28-.65.9-.37,1.38.28.48.9.65,1.38.37l.61-.35v2.28c0,.56.45,1.01,1.01,1.01s1.01-.45,1.01-1.01v-2.28l.61.35c.16.09.33.14.51.14.35,0,.69-.18.88-.51.28-.48.11-1.1-.37-1.38l-1.62-.94v-1.73c.55-.16,1.04-.45,1.45-.84l1.5.86v1.87c0,.56.45,1.01,1.01,1.01s1.01-.45,1.01-1.01v-.7l1.97,1.14c.16.09.33.14.5.14.35,0,.69-.18.88-.51.28-.48.11-1.1-.37-1.38Zm-8.96-2.46c-.85,0-1.55-.7-1.55-1.55s.69-1.55,1.55-1.55,1.55.7,1.55,1.55-.7,1.55-1.55,1.55Z"/>
        <path class="cls-6" d="m54.87,101.78l-1.97-1.14.61-.35c.48-.28.65-.9.37-1.38-.28-.48-.9-.65-1.38-.37l-1.62.94-1.5-.86c.06-.27.1-.55.1-.84s-.04-.57-.1-.84l1.5-.86,1.62.94c.16.09.33.14.5.14.35,0,.69-.18.88-.51.28-.48.11-1.1-.37-1.38l-.61-.35,1.97-1.14c.48-.28.65-.9.37-1.38-.28-.48-.9-.65-1.38-.37l-1.97,1.14v-.7c0-.56-.45-1.01-1.01-1.01h0c-.56,0-1.01.45-1.01,1.01v1.87s-1.5.87-1.5.87c-.4-.38-.9-.68-1.45-.84v-1.73l1.62-.94c.48-.28.65-.9.37-1.38-.28-.48-.9-.65-1.38-.37l-.61.35v-2.28c0-.56-.45-1.01-1.01-1.01s-1.01.45-1.01,1.01v2.28l-.61-.35c-.48-.28-1.1-.11-1.38.37-.28.48-.11,1.1.37,1.38l1.62.94v1.73c-.55.16-1.04.45-1.45.84l-1.5-.87v-1.87c0-.56-.45-1.01-1.01-1.01s-1.01.45-1.01,1.01v.7l-1.97-1.14c-.48-.28-1.1-.11-1.38.37-.28.48-.11,1.1.37,1.38l1.97,1.14-.61.35c-.48.28-.65.9-.37,1.38.19.32.53.51.88.51.17,0,.35-.04.5-.14l1.62-.94,1.5.86c-.07.27-.1.55-.1.84s.04.57.1.84l-1.5.86-1.62-.94c-.48-.28-1.1-.11-1.38.37-.28.48-.11,1.1.37,1.38l.61.35-1.97,1.14c-.48.28-.65.9-.37,1.38.19.32.53.51.88.51.17,0,.35-.04.51-.14l1.97-1.14v.7c0,.56.45,1.01,1.01,1.01s1.01-.45,1.01-1.01v-1.87s1.5-.87,1.5-.87c.4.38.9.68,1.45.84v1.73l-1.62.94c-.48.28-.65.9-.37,1.38.28.48.9.65,1.38.37l.61-.35v2.28c0,.56.45,1.01,1.01,1.01s1.01-.45,1.01-1.01v-2.28l.61.35c.16.09.33.14.51.14.35,0,.69-.18.88-.51.28-.48.11-1.1-.37-1.38l-1.62-.94v-1.73c.55-.16,1.04-.45,1.45-.84l1.5.86v1.87c0,.56.45,1.01,1.01,1.01s1.01-.45,1.01-1.01v-.7l1.97,1.14c.16.09.33.14.5.14.35,0,.69-.18.88-.51.28-.48.11-1.1-.37-1.38Zm-8.96-2.46c-.85,0-1.55-.7-1.55-1.55s.69-1.55,1.55-1.55,1.55.7,1.55,1.55-.7,1.55-1.55,1.55Z"/>
      </g>
    </g>
  </g>
</svg>